<?xml version="1.0" encoding="utf-8"?><svg xmlns="http://www.w3.org/2000/svg" xmlns:xlink="http://www.w3.org/1999/xlink"><symbol viewBox="0 0 24 24" id="arrow-next" xmlns="http://www.w3.org/2000/svg"><circle cx="12" cy="12" r="12"/><g clip-path="url(#aclip0)"><path d="M16.864 11.671l-2.976-2.976a.465.465 0 00-.658.658l2.182 2.182H7.465a.465.465 0 100 .93h7.947l-2.182 2.182a.465.465 0 10.658.658l2.976-2.976a.465.465 0 000-.658z"/></g><defs><clipPath id="aclip0"><path transform="translate(7 7)" d="M0 0h10v10H0z"/></clipPath></defs></symbol><symbol viewBox="0 0 24 24" id="arrow-prev" xmlns="http://www.w3.org/2000/svg"><circle r="12" transform="matrix(-1 0 0 1 12 12)"/><g clip-path="url(#bclip0)"><path d="M7.136 11.671l2.976-2.976a.465.465 0 01.658.658l-2.182 2.182h7.947a.465.465 0 110 .93H8.588l2.182 2.182a.465.465 0 11-.658.658l-2.976-2.976a.465.465 0 010-.658z"/></g><defs><clipPath id="bclip0"><path transform="matrix(-1 0 0 1 17 7)" d="M0 0h10v10H0z"/></clipPath></defs></symbol><symbol viewBox="0 0 20 20" id="close" xmlns="http://www.w3.org/2000/svg"><path d="M19.412 18.235L1.765.588A.832.832 0 00.588 1.765l17.647 17.647a.832.832 0 001.177-1.177z"/><path d="M.588 18.235L18.235.588a.832.832 0 011.177 1.177L1.765 19.412a.832.832 0 01-1.177-1.177z"/></symbol><symbol viewBox="0 0 16 13" id="mail" xmlns="http://www.w3.org/2000/svg"><path d="M1.536 3.875c.202.143.812.567 1.83 1.272 1.018.706 1.798 1.249 2.34 1.63.059.041.185.132.379.272a10.517 10.517 0 00.946.63c.182.106.353.187.514.24.16.054.31.08.446.08h.018a1.4 1.4 0 00.446-.08 2.74 2.74 0 00.514-.24 10.517 10.517 0 00.946-.63l.38-.272c.547-.381 1.94-1.349 4.178-2.902a4.26 4.26 0 001.09-1.098c.291-.429.437-.878.437-1.348 0-.393-.142-.73-.424-1.01A1.38 1.38 0 0014.57 0H1.43C.97 0 .618.155.37.464.123.774 0 1.161 0 1.624c0 .376.164.782.491 1.22.327.437.676.781 1.045 1.031z"/><path d="M15.107 4.83a185.599 185.599 0 00-4.446 3.08c-.34.25-.615.446-.826.586-.212.14-.493.282-.844.428a2.569 2.569 0 01-.982.219h-.018a2.57 2.57 0 01-.982-.219 5.098 5.098 0 01-.844-.428c-.211-.14-.486-.335-.826-.585-.803-.59-2.282-1.616-4.437-3.08A4.73 4.73 0 010 4.053v7.089c0 .393.14.729.42 1.009.28.28.616.42 1.009.42h13.143c.392 0 .729-.14 1.008-.42.28-.28.42-.616.42-1.01V4.055a4.922 4.922 0 01-.893.776z"/></symbol><symbol viewBox="0 0 16 23" id="map" xmlns="http://www.w3.org/2000/svg"><path d="M8 0C3.589 0 0 3.589 0 8c0 5.474 7.16 13.511 7.464 13.85a.72.72 0 001.072 0C8.841 21.512 16 13.475 16 8c0-4.411-3.589-8-8-8zm0 12.025A4.03 4.03 0 013.975 8 4.03 4.03 0 018 3.975 4.03 4.03 0 0112.025 8 4.03 4.03 0 018 12.025z"/></symbol><symbol viewBox="0 0 24 24" id="phone" xmlns="http://www.w3.org/2000/svg"><path d="M12 0C5.383 0 0 5.383 0 12s5.383 12 12 12c4.017 0 7.945-2.098 9.34-4.989.507-1.053.278-1.773-.005-2.191-.45-.669-1.375-1.024-2.552-1.056v-.627c0-.671-.546-1.217-1.218-1.217a7.363 7.363 0 01-2.315-.368c-.425-.147-.95-.009-1.193.244l-1.413 1.066c-1.62-.882-2.64-1.9-3.51-3.508l1.02-1.357c.326-.325.441-.798.302-1.243a7.386 7.386 0 01-.37-2.32A1.216 1.216 0 008.87 5.217H6.435c-.672 0-1.218.546-1.218 1.218 0 6.809 5.54 12.348 12.348 12.348a1.22 1.22 0 001.218-1.218v-.77c.803.025 1.436.237 1.687.608.189.279.165.667-.07 1.153-1.23 2.55-4.763 4.4-8.4 4.4-6.042 0-10.957-4.914-10.957-10.956S5.958 1.043 12 1.043c6.042 0 10.956 4.915 10.956 10.957A.522.522 0 0024 12c0-6.617-5.383-12-12-12z"/></symbol><symbol viewBox="0 0 14 14" id="plus" xmlns="http://www.w3.org/2000/svg"><g clip-path="url(#gclip0)"><path d="M13.24 6.024H7.977V.761C7.977.52 7.65 0 7 0s-.977.52-.977.76v5.263H.76C.52 6.023 0 6.349 0 7s.52.977.76.977h5.263v5.263c0 .24.326.76.977.76s.977-.52.977-.76V7.978h5.263c.24 0 .76-.326.76-.977s-.52-.977-.76-.977z"/></g><defs><clipPath id="gclip0"><path d="M0 0h14v14H0z"/></clipPath></defs></symbol><symbol viewBox="0 0 26 40" id="scroll-down" xmlns="http://www.w3.org/2000/svg"><path d="M13.019 33.605l-7.014-7.414 2.27-2.147 4.737 5.007 4.71-5.004 2.275 2.141-6.978 7.417zm12.95-2.98V9.375c0-5.17-4.206-9.375-9.375-9.375H9.406C4.236 0 .031 4.206.031 9.375v21.25C.031 35.795 4.237 40 9.406 40h7.188c5.17 0 9.375-4.206 9.375-9.375zm-9.375-27.5a6.257 6.257 0 016.25 6.25v21.25a6.257 6.257 0 01-6.25 6.25H9.406a6.257 6.257 0 01-6.25-6.25V9.375a6.257 6.257 0 016.25-6.25h7.188zM13 6.328a1.562 1.562 0 100 3.125 1.562 1.562 0 000-3.125zm0 6.25a1.562 1.562 0 100 3.125 1.562 1.562 0 000-3.125zm0 6.25a1.562 1.562 0 100 3.125 1.562 1.562 0 000-3.125z"/></symbol><symbol viewBox="0 0 16 16" id="tel" xmlns="http://www.w3.org/2000/svg"><path d="M15.992 12.619a.773.773 0 01-.237.677l-2.253 2.236a1.268 1.268 0 01-.398.288 1.59 1.59 0 01-.482.152 2.313 2.313 0 01-.322.017c-.215 0-.562-.036-1.042-.11-.48-.073-1.067-.254-1.761-.542-.695-.287-1.482-.72-2.363-1.295-.881-.576-1.818-1.367-2.812-2.372-.79-.779-1.445-1.524-1.965-2.235A15.93 15.93 0 011.104 7.46a10.628 10.628 0 01-.712-1.643 8.717 8.717 0 01-.321-1.27 4.195 4.195 0 01-.068-.839c.011-.203.017-.316.017-.338.022-.158.073-.32.152-.483A1.27 1.27 0 01.46 2.49L2.713.237A.746.746 0 013.255 0a.63.63 0 01.39.127c.112.085.208.19.287.313l1.813 3.44c.101.18.13.378.085.593a1.056 1.056 0 01-.288.542l-.83.83a.282.282 0 00-.06.11.418.418 0 00-.025.127c.045.237.147.508.305.813.135.27.344.601.627.99.282.39.683.84 1.202 1.347.508.52.96.923 1.355 1.211.395.288.726.5.991.636.265.135.469.217.61.245l.211.042c.023 0 .06-.008.11-.025a.283.283 0 00.11-.06l.966-.982c.204-.18.44-.27.712-.27.192 0 .344.033.457.1h.017l3.269 1.932c.237.147.378.333.423.559z"/></symbol></svg>